<svg xmlns="http://www.w3.org/2000/svg" xmlns:xlink="http://www.w3.org/1999/xlink" version="1.1" x="0px" y="0px" viewBox="0 0 64 80" enable-background="new 0 0 64 64" xml:space="preserve"><g><path fill="#000000" d="M36.355,59.471c-6.814-0.047-13.693-0.028-20.366-0.01h-1.964c-0.921,0-1.814-0.366-2.453-0.996   c-0.442-0.442-0.968-1.222-0.959-2.406c0.013-1.751,0.016-3.502,0.02-5.254h20.215c-0.376-0.291-0.752-0.611-1.109-0.94H10.637   c0.005-2.843,0.004-5.686,0.004-8.534V37.15c-0.027-8.245-0.027-16.49-0.027-24.727h31.681v13.28   c0.442-0.056,0.893-0.122,1.335-0.178l0.583-0.075c0.141-0.019,0.282-0.038,0.432-0.047V7.874c0-3.421-2.312-5.714-5.742-5.714   l-8.28,0.009c-5.507,0-11.024,0-16.513-0.009h-0.066c-1.579,0-3.102,0.63-4.182,1.729C8.799,4.97,8.226,6.408,8.263,7.968   C8.292,8.739,8.282,9.5,8.273,10.271c0,0.395-0.009,0.799-0.009,1.203c0,8.562,0,17.115,0.028,25.676v4.192   c0,4.897,0.009,9.803-0.028,14.699c-0.019,1.56,0.573,3.007,1.645,4.079c1.09,1.09,2.622,1.701,4.173,1.692h1.917   c7.453-0.019,15.169-0.038,22.744,0.028h0.075c0.378,0,0.749-0.038,1.112-0.108c-0.055-0.257-0.074-0.521-0.056-0.785   C38.473,60.857,37.258,60.357,36.355,59.471z M10.613,7.893c-0.028-1.147,0.479-1.917,0.912-2.349   C12.192,4.876,13.151,4.5,14.09,4.51c5.507,0.009,11.024,0.009,16.541,0.009l8.271-0.009c2.124,0,3.393,1.259,3.393,3.364v3.609   H10.613c0-0.003,0-0.006,0-0.01c0-0.395,0.009-0.78,0.009-1.175C10.632,9.491,10.641,8.692,10.613,7.893z"/><path fill="#000000" d="M28.697,54.786c0,1.217-0.993,2.229-2.21,2.258h-0.01c-1.217,0-2.239-1.051-2.239-2.278   c0-1.217,1.003-2.21,2.239-2.21C27.704,52.557,28.697,53.56,28.697,54.786z"/><path fill="#000000" d="M55.593,51.313l-0.257-0.964c-0.284-1.093-0.607-2.332-1.061-3.482c-0.13-0.325-0.298-0.657-0.472-0.999   c-0.224-0.436-0.477-0.93-0.547-1.317c-0.197-1.115-0.335-2.313-0.468-3.47c-0.191-1.663-0.387-3.383-0.771-5.012   c-0.452-1.914-1.145-3.702-1.938-5.673c-0.66-1.654-2.068-2.61-3.963-2.692c-0.532-0.02-1.072,0.001-1.583,0.07l-0.59,0.081   c-0.953,0.127-1.908,0.26-2.862,0.393l-0.472,0.065c-1.41,0.196-2.821,0.392-4.236,0.579c-0.438,0.063-0.872,0.085-1.23-0.83   l-2.961-7.567c-0.509-1.296-1.36-2.23-2.532-2.777c-0.412-0.192-0.853-0.29-1.312-0.29c-1.152,0-2.204,0.621-2.7,1.588   c-0.756,0.89-0.932,2.128-0.495,3.494l1.854,5.804c0.411,1.482,0.825,2.962,1.24,4.443c-0.127-0.096-0.259-0.186-0.396-0.271   c-1.009-0.621-2.186-0.613-3.257,0.022c-1.078,0.635-1.578,1.761-1.304,2.939c0.245,1.079,0.58,1.979,1.023,2.748   c0.081,0.143,0.162,0.283,0.256,0.436l0.079,0.13c0.391,0.652,0.802,1.293,1.212,1.933c0.29,0.45,0.578,0.901,0.852,1.341   l0.187,0.31c0.146,0.235,0.286,0.47,0.424,0.711c2.052,3.559,4.677,6.128,8.022,7.85c0.01,0.013,0.022,0.031,0.037,0.054   c0.216,0.368,0.409,1.071,0.512,1.448c0.051,0.191,0.096,0.346,0.129,0.441l0.517,1.488l0.593,1.925   c0.436,1.533,1.565,2.376,3.181,2.376c1.044,0,2.11-0.333,3.115-0.647c0.217-0.068,0.424-0.133,0.618-0.186l9.376-2.628   C55.263,54.658,56.1,53.177,55.593,51.313z M52.812,53.041l-9.375,2.628c-0.231,0.064-0.48,0.143-0.741,0.224   c-0.79,0.247-1.686,0.526-2.395,0.526c-0.621,0-0.885-0.193-1.047-0.765l-0.718-2.409l-0.195-0.489l-0.014,0.005l-0.222-0.638   c-0.02-0.06-0.045-0.152-0.089-0.318c-0.149-0.541-0.375-1.358-0.738-1.973c-0.237-0.399-0.526-0.689-0.862-0.862   c-2.989-1.523-5.338-3.819-7.183-7.02c-0.149-0.259-0.302-0.514-0.454-0.762l-0.187-0.308c-0.287-0.462-0.582-0.924-0.878-1.385   c-0.399-0.619-0.797-1.238-1.177-1.871l-0.103-0.173c-0.072-0.115-0.139-0.233-0.224-0.383c-0.322-0.556-0.573-1.246-0.77-2.115   c-0.04-0.169-0.034-0.351,0.272-0.532c0.374-0.222,0.647-0.239,0.961-0.046c0.283,0.175,0.53,0.39,0.716,0.622   c0.401,0.499,0.796,1.008,1.184,1.516c0.067,0.088,0.114,0.19,0.189,0.342c0.104,0.206,0.234,0.463,0.433,0.712   c0.136,0.169,0.547,0.683,1.255,0.683c0.002,0,0.003,0,0.005,0l0.594-0.058l0.315-0.415c0.28-0.369,0.337-0.863,0.167-1.469   l-1.021-3.653c-0.46-1.642-0.921-3.286-1.388-4.971l-1.866-5.844c-0.145-0.45-0.243-1.062,0.169-1.5l0.165-0.264   c0.16-0.375,0.689-0.545,1.121-0.344c0.657,0.307,1.104,0.808,1.406,1.577l3.003,7.678c0.599,1.528,1.915,2.319,3.547,2.109   c1.417-0.189,2.833-0.385,4.247-0.583c1.109-0.154,2.217-0.308,3.328-0.458l0.584-0.079c0.397-0.051,0.817-0.065,1.198-0.05   c0.998,0.043,1.669,0.479,1.998,1.299c0.76,1.899,1.424,3.613,1.838,5.358c0.353,1.508,0.543,3.158,0.725,4.755   c0.138,1.192,0.28,2.424,0.488,3.602c0.125,0.71,0.445,1.335,0.797,2.021c0.126,0.247,0.25,0.488,0.344,0.727   c0.401,1.013,0.695,2.138,0.979,3.227l0.261,0.983C53.637,52.576,53.482,52.854,52.812,53.041z"/></g><text x="0" y="79" fill="#000000" font-size="5px" font-weight="bold" font-family="'Helvetica Neue', Helvetica, Arial-Unicode, Arial, Sans-serif">Created by Delwar Hossain</text><text x="0" y="84" fill="#000000" font-size="5px" font-weight="bold" font-family="'Helvetica Neue', Helvetica, Arial-Unicode, Arial, Sans-serif">from the Noun Project</text></svg>