<?xml version="1.0" encoding="utf-8"?>
<!-- Generator: Adobe Illustrator 20.1.0, SVG Export Plug-In . SVG Version: 6.00 Build 0)  -->
<svg version="1.1" id="Layer_1" xmlns="http://www.w3.org/2000/svg" xmlns:xlink="http://www.w3.org/1999/xlink" x="0px" y="0px"
	 viewBox="0 0 500 500" style="enable-background:new 0 0 500 500;" xml:space="preserve">
<style type="text/css">
	.st0{fill:#4555A5;}
	.st1{fill:#E81F64;}
</style>
<rect class="st0" width="500" height="500"/>
<g>
	<path class="st1" d="M380.9,345.6l-56.2-56.2l25.9-10.4c5.2-2.1,8.7-7.1,8.8-12.7c0.1-5.7-3.2-10.8-8.3-13.1l-150.4-66.6
		c-5.3-2.3-11.5-1.2-15.6,2.9c-4.2,4.2-5.3,10.2-2.9,15.6l66.6,150.4c2.2,5.1,7.3,8.4,12.8,8.4c0,0,0.1,0,0.2,0
		c5.6-0.1,10.6-3.5,12.7-8.8l12.1-30.2l57.5,57.4c2.2,2.3,5.3,3.4,8.2,3.4c3,0,5.9-1.1,8.2-3.4l20.3-20.3
		C385.5,357.6,385.5,350.2,380.9,345.6z M352.4,368.1l-63-63c-1.5-1.5-3.6-2.3-5.7-2.3c-0.5,0-1.1,0-1.6,0.2
		c-2.6,0.5-4.8,2.4-5.8,4.8l-14.9,37l-62.5-141.4L340.2,266l-32.7,13.2c-2.5,1-4.3,3.2-4.8,5.8c-0.5,2.6,0.3,5.3,2.2,7.3l61.7,61.7
		L352.4,368.1z"/>
	<path class="st1" d="M200.2,163.1c3.1,0,5.6-2.5,5.6-5.6v-37.6c0-3.1-2.5-5.6-5.6-5.6c-3.1,0-5.6,2.5-5.6,5.6v37.6
		C194.6,160.6,197.1,163.1,200.2,163.1z"/>
	<path class="st1" d="M238.4,174.1l26.6-26.6c2.2-2.2,2.2-5.7,0-7.9s-5.7-2.2-7.9,0l-26.6,26.6c-2.2,2.2-2.2,5.7,0,7.9
		C232.7,176.3,236.2,176.3,238.4,174.1z"/>
	<path class="st1" d="M155,168.7c2.2,2.2,5.7,2.2,7.9,0l0,0c2.2-2.2,2.2-5.7,0-7.9l-26.6-26.6c-2.2-2.2-5.7-2.2-7.9,0
		s-2.2,5.7,0,7.9L155,168.7z"/>
	<path class="st1" d="M159.9,236.9l-26.6,26.6c-2.2,2.2-2.2,5.7,0,7.9s5.7,2.2,7.9,0l26.6-26.6c2.2-2.2,2.2-5.7,0-7.9
		C165.6,234.7,162.1,234.7,159.9,236.9z"/>
	<path class="st1" d="M162,201.2c0-3.1-2.5-5.6-5.6-5.6h-37.6c-3.1,0-5.6,2.5-5.6,5.6c0,3.1,2.5,5.6,5.6,5.6h37.6
		C159.5,206.8,162,204.2,162,201.2z"/>
</g>
</svg>
