<svg id="Layer_1" data-name="Layer 1" xmlns="http://www.w3.org/2000/svg" viewBox="0 0 500 500"><defs><style>.cls-1{fill:#4555a5;}.cls-2{fill:#231f20;}</style></defs><title>touch-button-blue-black</title><rect class="cls-1" width="500" height="500"/><path class="cls-2" d="M288,170.77c-2.75,2.75-5.51,6.3-6.69,9.84A25.13,25.13,0,0,0,253,184.54a20.84,20.84,0,0,0-7.48,12.2c-8.26-2-16.92-.39-23.61,5.51a31.51,31.51,0,0,0-5.9,8.26l-17.71-17.71c-9.84-9.84-25.58-10.62-35.81-2a25.58,25.58,0,0,0-8.66,18.1,26.19,26.19,0,0,0,7.48,18.5l66.9,66.9-9.84.39c-15.35,1.18-24.4,7.87-27.15,18.5-2,6.69-.79,13.38,3.15,19.68a26.86,26.86,0,0,0,17.31,11.81l106.64,21.64,16.92,16.92a8.56,8.56,0,0,0,11.81,0l72.8-72.8a8.56,8.56,0,0,0,0-11.81l-22.43-22.43L387.2,241.6a37.88,37.88,0,0,0-9.05-15.35l-53.91-53.91A26.32,26.32,0,0,0,288,170.77Zm78.31,67.29h0a26.22,26.22,0,0,1,5.12,8.26l10.23,37a10.32,10.32,0,0,0,2,3.54l18.1,18.1-60.6,60.6L328.57,353a10.48,10.48,0,0,0-3.94-2.36l-109.4-21.25a9.66,9.66,0,0,1-6.69-4.33c-.39-1.18-2-3.54-1.18-6.69.39-1.18,1.18-5.12,12.59-6.3l18.5-1.18a10.75,10.75,0,0,1,8.66,3.15l3.94,3.94a8.35,8.35,0,0,0,11.81-11.81l-10.23-10.23-7.08-7.08L172.74,216a8.94,8.94,0,0,1-2.36-6.3,7.16,7.16,0,0,1,3.15-6.3c3.15-3.15,9.05-2.75,13,1.18l21.25,21.25,13.38,13.38,27.55,27.55A8.35,8.35,0,0,0,260.49,255l-27.55-27.55a8.94,8.94,0,0,1-2.36-6.3,7.16,7.16,0,0,1,3.15-6.3c3.15-3.15,9.05-2.75,13,1.18l1.57,1.57,4.72,4.72,20.86,20.86a8.35,8.35,0,0,0,11.81-11.81l-20.86-20.86a10.27,10.27,0,0,1-2.75-6.69,7.16,7.16,0,0,1,3.15-6.3c3.15-3.15,9.05-2.75,13,1.18l2.75,2.75,7.48,7.48,17.71,17.71a8.35,8.35,0,1,0,11.81-11.81l-17.71-17.71a8.94,8.94,0,0,1-2.36-6.3,7.16,7.16,0,0,1,3.15-6.3c3.15-3.15,9.05-2.75,13,1.18l52.34,52.34Z"/><path class="cls-2" d="M223.89,190.84c3.94-2.36,4.72-7.87,2.36-11.81a75.42,75.42,0,0,0-7.08-8.66,55.1,55.1,0,0,0-77.92,77.92,58.68,58.68,0,0,0,24.4,14.17,8.68,8.68,0,0,0,8.26-2,8,8,0,0,0,2-3.54,8.28,8.28,0,0,0-5.51-10.23,37,37,0,0,1-16.92-9.84,38.4,38.4,0,0,1,54.31-54.31,36.74,36.74,0,0,1,5.12,5.9C214.84,192.81,220,194,223.89,190.84Z"/><path class="cls-2" d="M168.8,294.73a7.09,7.09,0,0,0,6.3-2.36,6.32,6.32,0,0,0,2-4.33,7.89,7.89,0,0,0-6.3-8.66c-2.75-.39-5.9-1.18-9.05-2A70.1,70.1,0,1,1,229.4,160.14a56.07,56.07,0,0,1,8.66,11,7.64,7.64,0,1,0,12.59-8.66,90.6,90.6,0,0,0-11-13.38,85.7,85.7,0,1,0-83.43,143.24A112.16,112.16,0,0,0,168.8,294.73Z"/></svg>